<?xml version="1.0" encoding="UTF-8" standalone="no"?>
<!DOCTYPE svg PUBLIC "-//W3C//DTD SVG 1.1//EN" "http://www.w3.org/Graphics/SVG/1.1/DTD/svg11.dtd">
<!-- Created with Vectornator (http://vectornator.io/) -->
<svg height="100%" stroke-miterlimit="10" style="fill-rule:nonzero;clip-rule:evenodd;stroke-linecap:round;stroke-linejoin:round;" version="1.1" viewBox="0 0 3142.65 1283.72" width="100%" xml:space="preserve" xmlns="http://www.w3.org/2000/svg" xmlns:vectornator="http://vectornator.io" xmlns:xlink="http://www.w3.org/1999/xlink">
<defs>
<filter color-interpolation-filters="sRGB" filterUnits="userSpaceOnUse" height="542.633" id="Filter" width="1905.23" x="1119.83" y="625.204">
<feDropShadow dx="-4.4157e-05" dy="12.0214" flood-color="#000000" flood-opacity="0.333" in="SourceGraphic" result="Shadow" stdDeviation="6.01069"/>
</filter>
<filter color-interpolation-filters="sRGB" filterUnits="userSpaceOnUse" height="741.835" id="Filter_2" width="689.972" x="438.638" y="282.692">
<feDropShadow dx="-7.16829e-05" dy="19.5151" flood-color="#000000" flood-opacity="0.333" in="SourceGraphic" result="Shadow" stdDeviation="9.75755"/>
</filter>
<filter color-interpolation-filters="sRGB" filterUnits="userSpaceOnUse" height="349.007" id="Filter_3" width="1035.72" x="1119.83" y="289.413">
<feDropShadow dx="-4.4157e-05" dy="12.0214" flood-color="#000000" flood-opacity="0.333" in="SourceGraphic" result="Shadow" stdDeviation="6.01069"/>
</filter>
<filter color-interpolation-filters="sRGB" filterUnits="userSpaceOnUse" height="1242" id="Filter_4" width="1189.56" x="37.0463" y="34.1695">
<feDropShadow dx="-5.69712e-05" dy="15.51" flood-color="#000000" flood-opacity="0.333" in="SourceGraphic" result="Shadow" stdDeviation="7.75498"/>
</filter>
<filter color-interpolation-filters="sRGB" filterUnits="userSpaceOnUse" height="1242.01" id="Filter_5" width="1189.55" x="37.052" y="34.1695">
<feDropShadow dx="-5.69712e-05" dy="15.51" flood-color="#000000" flood-opacity="0.333" in="SourceGraphic" result="Shadow" stdDeviation="7.75498"/>
</filter>
</defs>
<g id="Light" vectornator:layerName="Light">
<path d="M383.915 219.281L383.915 904.281L664.759 904.281C735.213 904.281 797.029 890.239 850.196 862.187C903.363 834.136 944.447 794.175 973.477 742.312C1002.51 690.45 1017.04 630.279 1017.04 561.781C1017.04 493.283 1002.51 433.113 973.477 381.25C944.447 329.387 903.363 289.426 850.196 261.375C797.029 233.324 735.213 219.281 664.759 219.281L383.915 219.281ZM1215.7 224.156C1184.03 224.156 1156.16 230.659 1132.1 243.687C1108.05 256.716 1089.31 275.067 1075.88 298.719C1062.45 322.371 1055.76 349.408 1055.76 379.875C1055.76 411.545 1062.57 438.999 1076.2 462.25C1089.83 485.501 1109.25 503.466 1134.51 516.094C1159.76 528.722 1189.63 535.031 1224.1 535.031C1250.16 535.031 1274.74 530.825 1297.79 522.406C1320.84 513.988 1340.77 501.947 1357.6 486.312L1308.29 433.406C1298.27 441.424 1286.26 447.622 1272.23 452.031C1258.2 456.441 1243.75 458.656 1228.91 458.656C1207.67 458.656 1190.23 453.952 1176.6 444.531C1162.97 435.11 1154.75 422.765 1151.95 407.531L1370.23 407.531C1372.23 393.5 1373.23 381.684 1373.23 372.062C1373.23 342.397 1366.92 316.436 1354.29 294.187C1341.66 271.938 1323.54 254.696 1299.88 242.469C1276.23 230.242 1248.17 224.156 1215.7 224.156ZM1976.98 224.156C1943.3 224.156 1916.84 238.767 1897.6 268.031L1890.38 230.75L1808.01 230.75L1808.01 527.812L1902.41 527.812L1902.41 383.5C1902.41 358.645 1908.23 339.797 1919.85 326.969C1931.48 314.141 1947.31 307.719 1967.35 307.719C1975.37 307.719 1982.98 308.938 1990.2 311.344C1997.41 313.749 2005.25 317.539 2013.66 322.75L2053.35 253.594C2043.33 243.973 2031.48 236.667 2017.85 231.656C2004.22 226.645 1990.61 224.156 1976.98 224.156ZM1550.63 224.75C1522.97 224.75 1498.42 231.253 1476.98 244.281C1455.53 257.31 1438.78 275.548 1426.76 299C1414.73 322.452 1408.73 349.215 1408.73 379.281C1408.73 409.347 1414.73 436.111 1426.76 459.562C1438.78 483.014 1455.53 501.253 1476.98 514.281C1498.42 527.31 1522.97 533.812 1550.63 533.812C1591.12 533.812 1624 520.005 1649.26 492.344L1655.26 527.812L1737.04 527.812L1737.04 230.75L1655.26 230.75L1649.26 265.625C1637.23 252.396 1622.78 242.265 1605.95 235.25C1589.11 228.235 1570.68 224.75 1550.63 224.75ZM1218.7 298.719C1237.94 298.719 1253.27 303.504 1264.7 313.125C1276.12 322.746 1282.43 336.2 1283.63 353.437L1152.57 353.437C1154.17 336.2 1160.87 322.746 1172.7 313.125C1184.52 303.504 1199.85 298.719 1218.7 298.719ZM1572.88 304.125C1593.73 304.125 1610.78 311.045 1624.01 324.875C1637.24 338.705 1643.85 356.832 1643.85 379.281C1643.85 401.731 1637.24 419.857 1624.01 433.687C1610.78 447.518 1593.73 454.437 1572.88 454.437C1552.04 454.437 1535.1 447.437 1522.07 433.406C1509.04 419.375 1502.54 401.33 1502.54 379.281C1502.54 357.233 1509.04 339.187 1522.07 325.156C1535.1 311.125 1552.04 304.125 1572.88 304.125ZM544.415 359.219L664.759 359.219C702.596 359.219 736.041 367.552 765.071 384.187C794.101 400.823 816.588 424.29 832.571 454.625C848.554 484.96 856.54 520.683 856.54 561.781C856.54 623.755 838.955 672.999 803.727 709.531C768.5 746.063 722.166 764.344 664.759 764.344L544.415 764.344L544.415 359.219ZM1673.91 559.937L1639.04 603.219C1618.59 593.598 1596.12 588.781 1571.66 588.781C1540 588.781 1511.85 595.122 1487.2 607.75C1462.54 620.378 1443.31 638.006 1429.48 660.656C1415.65 683.306 1408.73 709.074 1408.73 737.937C1408.73 768.004 1415.42 794.35 1428.85 817C1442.28 839.65 1461.32 857.198 1485.98 869.625C1510.63 882.053 1539.42 888.25 1572.29 888.25C1593.54 888.25 1609.86 892.376 1621.29 900.594C1632.71 908.812 1638.41 920.516 1638.41 935.75C1638.41 950.582 1632.22 962.511 1619.79 971.531C1607.36 980.551 1591.12 985.062 1571.07 985.062C1548.62 985.062 1531.49 979.668 1519.66 968.844C1507.84 958.02 1502.33 942.768 1503.13 923.125L1412.32 923.125C1411.92 926.332 1411.73 931.148 1411.73 937.562C1411.73 962.818 1418.23 985.07 1431.26 1004.31C1444.29 1023.55 1462.83 1038.39 1486.88 1048.81C1510.94 1059.24 1539 1064.44 1571.07 1064.44C1603.94 1064.44 1632.81 1059.32 1657.66 1049.09C1682.52 1038.87 1701.75 1024.26 1715.38 1005.22C1729.01 986.177 1735.85 964.23 1735.85 939.375C1735.85 918.128 1730.31 899.392 1719.29 883.156C1708.27 866.921 1692.74 854.189 1672.7 844.969C1691.94 832.942 1706.89 817.61 1717.51 798.969C1728.13 780.328 1733.45 759.986 1733.45 737.937C1733.45 706.268 1723.43 679.007 1703.38 656.156L1743.07 609.844L1673.91 559.937ZM2643.23 588.781C2602.34 588.781 2569.87 597.499 2545.82 614.937C2521.77 632.376 2509.76 655.928 2509.76 685.594C2509.76 712.854 2520.85 734.913 2543.1 751.75C2565.35 768.587 2595.33 778.027 2633.01 780.031C2649.85 781.234 2661.89 783.611 2669.1 787.219C2676.32 790.827 2679.91 796.253 2679.91 803.469C2679.91 817.499 2666.88 824.5 2640.82 824.5C2621.98 824.5 2603.05 822.123 2584.01 817.312C2564.97 812.502 2548.22 805.663 2533.79 796.844L2497.73 861.781C2536.61 888.24 2582.31 901.469 2634.82 901.469C2678.12 901.469 2711.99 892.751 2736.45 875.312C2760.9 857.874 2773.13 833.936 2773.13 803.469C2773.13 774.605 2762.01 752.16 2739.76 736.125C2717.51 720.09 2685.13 710.457 2642.63 707.25C2627.8 705.646 2617.28 703.238 2611.07 700.031C2604.86 696.824 2601.76 692.232 2601.76 686.219C2601.76 671.787 2616.98 664.562 2647.45 664.562C2678.31 664.562 2704.97 670.984 2727.41 683.812L2764.1 620.656C2748.87 610.634 2730.74 602.831 2709.7 597.219C2688.65 591.606 2666.48 588.781 2643.23 588.781ZM1215.7 590C1184.03 590 1156.16 596.503 1132.1 609.531C1108.05 622.56 1089.31 640.91 1075.88 664.562C1062.45 688.214 1055.76 715.283 1055.76 745.75C1055.76 777.42 1062.57 804.874 1076.2 828.125C1089.83 851.376 1109.25 869.31 1134.51 881.937C1159.76 894.565 1189.63 900.875 1224.1 900.875C1250.16 900.875 1274.74 896.669 1297.79 888.25C1320.84 879.831 1340.77 867.822 1357.6 852.187L1308.29 799.25C1298.27 807.268 1286.26 813.497 1272.23 817.906C1258.2 822.316 1243.75 824.5 1228.91 824.5C1207.67 824.5 1190.23 819.796 1176.6 810.375C1162.97 800.954 1154.75 788.64 1151.95 773.406L1370.23 773.406C1372.23 759.376 1373.23 747.559 1373.23 737.937C1373.23 708.272 1366.92 682.311 1354.29 660.062C1341.66 637.813 1323.54 620.571 1299.88 608.344C1276.23 596.117 1248.17 590 1215.7 590ZM1937.88 590C1906.21 590 1878.34 596.503 1854.29 609.531C1830.24 622.56 1811.5 640.91 1798.07 664.562C1784.64 688.214 1777.95 715.283 1777.95 745.75C1777.95 777.42 1784.75 804.874 1798.38 828.125C1812.01 851.376 1831.44 869.31 1856.7 881.937C1881.95 894.565 1911.81 900.875 1946.29 900.875C1972.35 900.875 1996.93 896.669 2019.98 888.25C2043.03 879.831 2062.95 867.822 2079.79 852.187L2030.48 799.25C2020.45 807.268 2008.45 813.497 1994.41 817.906C1980.38 822.316 1965.93 824.5 1951.1 824.5C1929.86 824.5 1912.42 819.796 1898.79 810.375C1885.16 800.954 1876.94 788.64 1874.13 773.406L2092.41 773.406C2094.42 759.376 2095.45 747.559 2095.45 737.937C2095.45 708.272 2089.11 682.311 2076.48 660.062C2063.85 637.813 2045.72 620.571 2022.07 608.344C1998.42 596.117 1970.35 590 1937.88 590ZM2331.16 590C2311.52 590 2293.56 593.597 2277.32 600.812C2261.09 608.028 2247.17 618.271 2235.54 631.5L2229.54 596.625L2147.76 596.625L2147.76 893.656L2242.16 893.656L2242.16 737.312C2242.16 717.268 2247.75 701.052 2258.98 688.625C2270.2 676.198 2285.04 669.969 2303.48 669.969C2320.31 669.969 2333.54 675.395 2343.16 686.219C2352.79 697.043 2357.6 712.07 2357.6 731.312L2357.6 893.656L2452.01 893.656L2452.01 725.906C2452.01 683.413 2441.11 650.115 2419.26 626.062C2397.41 602.01 2368.05 590 2331.16 590ZM1218.7 664.562C1237.94 664.562 1253.27 669.379 1264.7 679C1276.12 688.621 1282.43 702.043 1283.63 719.281L1152.57 719.281C1154.17 702.043 1160.87 688.621 1172.7 679C1184.52 669.379 1199.85 664.562 1218.7 664.562ZM1940.88 664.562C1960.13 664.562 1975.46 669.379 1986.88 679C1998.31 688.621 2004.62 702.043 2005.82 719.281L1874.76 719.281C1876.36 702.043 1883.06 688.621 1894.88 679C1906.71 669.379 1922.04 664.562 1940.88 664.562ZM1571.66 668.156C1592.91 668.156 1609.85 674.497 1622.48 687.125C1635.1 699.753 1641.45 716.691 1641.45 737.937C1641.45 759.184 1635.02 776.203 1622.2 789.031C1609.37 801.86 1592.51 808.281 1571.66 808.281C1550.82 808.281 1533.99 801.779 1521.16 788.75C1508.34 775.721 1501.91 758.783 1501.91 737.937C1501.91 716.691 1508.34 699.753 1521.16 687.125C1533.99 674.497 1550.82 668.156 1571.66 668.156ZM2868.73 797.469C2852.69 797.469 2839.66 802.173 2829.63 811.594C2819.61 821.015 2814.6 833.329 2814.6 848.562C2814.6 860.188 2817.62 870.126 2823.63 878.344C2829.65 886.562 2837.87 892.069 2848.29 894.875L2831.45 967.031L2882.57 967.031C2898.21 933.758 2908.83 909.403 2914.45 893.969C2920.06 878.535 2922.85 864.198 2922.85 850.969C2922.85 834.934 2917.84 822.009 2907.82 812.187C2897.8 802.366 2884.76 797.469 2868.73 797.469Z" fill="#27272b" fill-rule="nonzero" opacity="1" stroke="none" vectornator:layerName="Curve 1"/>
</g>
<g id="Dark" vectornator:layerName="Dark" visibility="hidden">
<path d="M383.915 219.281L383.915 904.281L664.759 904.281C735.213 904.281 797.029 890.239 850.196 862.187C903.363 834.136 944.447 794.175 973.477 742.312C1002.51 690.45 1017.04 630.279 1017.04 561.781C1017.04 493.283 1002.51 433.113 973.477 381.25C944.447 329.387 903.363 289.426 850.196 261.375C797.029 233.324 735.213 219.281 664.759 219.281L383.915 219.281ZM1215.7 224.156C1184.03 224.156 1156.16 230.659 1132.1 243.687C1108.05 256.716 1089.31 275.067 1075.88 298.719C1062.45 322.371 1055.76 349.408 1055.76 379.875C1055.76 411.545 1062.57 438.999 1076.2 462.25C1089.83 485.501 1109.25 503.466 1134.51 516.094C1159.76 528.722 1189.63 535.031 1224.1 535.031C1250.16 535.031 1274.74 530.825 1297.79 522.406C1320.84 513.988 1340.77 501.947 1357.6 486.312L1308.29 433.406C1298.27 441.424 1286.26 447.622 1272.23 452.031C1258.2 456.441 1243.75 458.656 1228.91 458.656C1207.67 458.656 1190.23 453.952 1176.6 444.531C1162.97 435.11 1154.75 422.765 1151.95 407.531L1370.23 407.531C1372.23 393.5 1373.23 381.684 1373.23 372.062C1373.23 342.397 1366.92 316.436 1354.29 294.187C1341.66 271.938 1323.54 254.696 1299.88 242.469C1276.23 230.242 1248.17 224.156 1215.7 224.156ZM1976.98 224.156C1943.3 224.156 1916.84 238.767 1897.6 268.031L1890.38 230.75L1808.01 230.75L1808.01 527.812L1902.41 527.812L1902.41 383.5C1902.41 358.645 1908.23 339.797 1919.85 326.969C1931.48 314.141 1947.31 307.719 1967.35 307.719C1975.37 307.719 1982.98 308.938 1990.2 311.344C1997.41 313.749 2005.25 317.539 2013.66 322.75L2053.35 253.594C2043.33 243.973 2031.48 236.667 2017.85 231.656C2004.22 226.645 1990.61 224.156 1976.98 224.156ZM1550.63 224.75C1522.97 224.75 1498.42 231.253 1476.98 244.281C1455.53 257.31 1438.78 275.548 1426.76 299C1414.73 322.452 1408.73 349.215 1408.73 379.281C1408.73 409.347 1414.73 436.111 1426.76 459.562C1438.78 483.014 1455.53 501.253 1476.98 514.281C1498.42 527.31 1522.97 533.812 1550.63 533.812C1591.12 533.812 1624 520.005 1649.26 492.344L1655.26 527.812L1737.04 527.812L1737.04 230.75L1655.26 230.75L1649.26 265.625C1637.23 252.396 1622.78 242.265 1605.95 235.25C1589.11 228.235 1570.68 224.75 1550.63 224.75ZM1218.7 298.719C1237.94 298.719 1253.27 303.504 1264.7 313.125C1276.12 322.746 1282.43 336.2 1283.63 353.437L1152.57 353.437C1154.17 336.2 1160.87 322.746 1172.7 313.125C1184.52 303.504 1199.85 298.719 1218.7 298.719ZM1572.88 304.125C1593.73 304.125 1610.78 311.045 1624.01 324.875C1637.24 338.705 1643.85 356.832 1643.85 379.281C1643.85 401.731 1637.24 419.857 1624.01 433.687C1610.78 447.518 1593.73 454.437 1572.88 454.437C1552.04 454.437 1535.1 447.437 1522.07 433.406C1509.04 419.375 1502.54 401.33 1502.54 379.281C1502.54 357.233 1509.04 339.187 1522.07 325.156C1535.1 311.125 1552.04 304.125 1572.88 304.125ZM544.415 359.219L664.759 359.219C702.596 359.219 736.041 367.552 765.071 384.187C794.101 400.823 816.588 424.29 832.571 454.625C848.554 484.96 856.54 520.683 856.54 561.781C856.54 623.755 838.955 672.999 803.727 709.531C768.5 746.063 722.166 764.344 664.759 764.344L544.415 764.344L544.415 359.219ZM1673.91 559.937L1639.04 603.219C1618.59 593.598 1596.12 588.781 1571.66 588.781C1540 588.781 1511.85 595.122 1487.2 607.75C1462.54 620.378 1443.31 638.006 1429.48 660.656C1415.65 683.306 1408.73 709.074 1408.73 737.937C1408.73 768.004 1415.42 794.35 1428.85 817C1442.28 839.65 1461.32 857.198 1485.98 869.625C1510.63 882.053 1539.42 888.25 1572.29 888.25C1593.54 888.25 1609.86 892.376 1621.29 900.594C1632.71 908.812 1638.41 920.516 1638.41 935.75C1638.41 950.582 1632.22 962.511 1619.79 971.531C1607.36 980.551 1591.12 985.062 1571.07 985.062C1548.62 985.062 1531.49 979.668 1519.66 968.844C1507.84 958.02 1502.33 942.768 1503.13 923.125L1412.32 923.125C1411.92 926.332 1411.73 931.148 1411.73 937.562C1411.73 962.818 1418.23 985.07 1431.26 1004.31C1444.29 1023.55 1462.83 1038.39 1486.88 1048.81C1510.94 1059.24 1539 1064.44 1571.07 1064.44C1603.94 1064.44 1632.81 1059.32 1657.66 1049.09C1682.52 1038.87 1701.75 1024.26 1715.38 1005.22C1729.01 986.177 1735.85 964.23 1735.85 939.375C1735.85 918.128 1730.31 899.392 1719.29 883.156C1708.27 866.921 1692.74 854.189 1672.7 844.969C1691.94 832.942 1706.89 817.61 1717.51 798.969C1728.13 780.328 1733.45 759.986 1733.45 737.937C1733.45 706.268 1723.43 679.007 1703.38 656.156L1743.07 609.844L1673.91 559.937ZM2643.23 588.781C2602.34 588.781 2569.87 597.499 2545.82 614.937C2521.77 632.376 2509.76 655.928 2509.76 685.594C2509.76 712.854 2520.85 734.913 2543.1 751.75C2565.35 768.587 2595.33 778.027 2633.01 780.031C2649.85 781.234 2661.89 783.611 2669.1 787.219C2676.32 790.827 2679.91 796.253 2679.91 803.469C2679.91 817.499 2666.88 824.5 2640.82 824.5C2621.98 824.5 2603.05 822.123 2584.01 817.312C2564.97 812.502 2548.22 805.663 2533.79 796.844L2497.73 861.781C2536.61 888.24 2582.31 901.469 2634.82 901.469C2678.12 901.469 2711.99 892.751 2736.45 875.312C2760.9 857.874 2773.13 833.936 2773.13 803.469C2773.13 774.605 2762.01 752.16 2739.76 736.125C2717.51 720.09 2685.13 710.457 2642.63 707.25C2627.8 705.646 2617.28 703.238 2611.07 700.031C2604.86 696.824 2601.76 692.232 2601.76 686.219C2601.76 671.787 2616.98 664.562 2647.45 664.562C2678.31 664.562 2704.97 670.984 2727.41 683.812L2764.1 620.656C2748.87 610.634 2730.74 602.831 2709.7 597.219C2688.65 591.606 2666.48 588.781 2643.23 588.781ZM1215.7 590C1184.03 590 1156.16 596.503 1132.1 609.531C1108.05 622.56 1089.31 640.91 1075.88 664.562C1062.45 688.214 1055.76 715.283 1055.76 745.75C1055.76 777.42 1062.57 804.874 1076.2 828.125C1089.83 851.376 1109.25 869.31 1134.51 881.937C1159.76 894.565 1189.63 900.875 1224.1 900.875C1250.16 900.875 1274.74 896.669 1297.79 888.25C1320.84 879.831 1340.77 867.822 1357.6 852.187L1308.29 799.25C1298.27 807.268 1286.26 813.497 1272.23 817.906C1258.2 822.316 1243.75 824.5 1228.91 824.5C1207.67 824.5 1190.23 819.796 1176.6 810.375C1162.97 800.954 1154.75 788.64 1151.95 773.406L1370.23 773.406C1372.23 759.376 1373.23 747.559 1373.23 737.937C1373.23 708.272 1366.92 682.311 1354.29 660.062C1341.66 637.813 1323.54 620.571 1299.88 608.344C1276.23 596.117 1248.17 590 1215.7 590ZM1937.88 590C1906.21 590 1878.34 596.503 1854.29 609.531C1830.24 622.56 1811.5 640.91 1798.07 664.562C1784.64 688.214 1777.95 715.283 1777.95 745.75C1777.95 777.42 1784.75 804.874 1798.38 828.125C1812.01 851.376 1831.44 869.31 1856.7 881.937C1881.95 894.565 1911.81 900.875 1946.29 900.875C1972.35 900.875 1996.93 896.669 2019.98 888.25C2043.03 879.831 2062.95 867.822 2079.79 852.187L2030.48 799.25C2020.45 807.268 2008.45 813.497 1994.41 817.906C1980.38 822.316 1965.93 824.5 1951.1 824.5C1929.86 824.5 1912.42 819.796 1898.79 810.375C1885.16 800.954 1876.94 788.64 1874.13 773.406L2092.41 773.406C2094.42 759.376 2095.45 747.559 2095.45 737.937C2095.45 708.272 2089.11 682.311 2076.48 660.062C2063.85 637.813 2045.72 620.571 2022.07 608.344C1998.42 596.117 1970.35 590 1937.88 590ZM2331.16 590C2311.52 590 2293.56 593.597 2277.32 600.812C2261.09 608.028 2247.17 618.271 2235.54 631.5L2229.54 596.625L2147.76 596.625L2147.76 893.656L2242.16 893.656L2242.16 737.312C2242.16 717.268 2247.75 701.052 2258.98 688.625C2270.2 676.198 2285.04 669.969 2303.48 669.969C2320.31 669.969 2333.54 675.395 2343.16 686.219C2352.79 697.043 2357.6 712.07 2357.6 731.312L2357.6 893.656L2452.01 893.656L2452.01 725.906C2452.01 683.413 2441.11 650.115 2419.26 626.062C2397.41 602.01 2368.05 590 2331.16 590ZM1218.7 664.562C1237.94 664.562 1253.27 669.379 1264.7 679C1276.12 688.621 1282.43 702.043 1283.63 719.281L1152.57 719.281C1154.17 702.043 1160.87 688.621 1172.7 679C1184.52 669.379 1199.85 664.562 1218.7 664.562ZM1940.88 664.562C1960.13 664.562 1975.46 669.379 1986.88 679C1998.31 688.621 2004.62 702.043 2005.82 719.281L1874.76 719.281C1876.36 702.043 1883.06 688.621 1894.88 679C1906.71 669.379 1922.04 664.562 1940.88 664.562ZM1571.66 668.156C1592.91 668.156 1609.85 674.497 1622.48 687.125C1635.1 699.753 1641.45 716.691 1641.45 737.937C1641.45 759.184 1635.02 776.203 1622.2 789.031C1609.37 801.86 1592.51 808.281 1571.66 808.281C1550.82 808.281 1533.99 801.779 1521.16 788.75C1508.34 775.721 1501.91 758.783 1501.91 737.937C1501.91 716.691 1508.34 699.753 1521.16 687.125C1533.99 674.497 1550.82 668.156 1571.66 668.156ZM2868.73 797.469C2852.69 797.469 2839.66 802.173 2829.63 811.594C2819.61 821.015 2814.6 833.329 2814.6 848.562C2814.6 860.188 2817.62 870.126 2823.63 878.344C2829.65 886.562 2837.87 892.069 2848.29 894.875L2831.45 967.031L2882.57 967.031C2898.21 933.758 2908.83 909.403 2914.45 893.969C2920.06 878.535 2922.85 864.198 2922.85 850.969C2922.85 834.934 2917.84 822.009 2907.82 812.187C2897.8 802.366 2884.76 797.469 2868.73 797.469Z" fill="#27272b" fill-rule="nonzero" opacity="1" stroke="#a0a0a0" stroke-linecap="butt" stroke-linejoin="round" stroke-width="8.06952" vectornator:layerName="Curve 1"/>
</g>
<g id="Layer-2" vectornator:layerName="Layer 2" visibility="hidden">
<g fill="#27272b" filter="url(#Filter)" stroke="#a0a0a0" stroke-linecap="butt" stroke-linejoin="round" stroke-width="8.06952" vectornator:layerName="Text 6" vectornator:shadowAngle="1.5708" vectornator:shadowColor="#000000" vectornator:shadowOffset="12.0214" vectornator:shadowOpacity="0.333" vectornator:shadowRadius="12.0214">
<path d="M1298.84 662.311C1331.31 662.311 1359.38 668.424 1383.03 680.651C1406.68 692.878 1424.82 710.116 1437.45 732.365C1450.08 754.614 1456.39 780.571 1456.39 810.236C1456.39 819.857 1455.39 831.683 1453.38 845.714L1235.1 845.714C1237.91 860.948 1246.13 873.275 1259.76 882.696C1273.39 892.116 1290.83 896.827 1312.07 896.827C1326.91 896.827 1341.34 894.622 1355.37 890.212C1369.4 885.802 1381.43 879.589 1391.45 871.571L1440.76 924.488C1423.92 940.122 1403.97 952.148 1380.92 960.567C1357.87 968.986 1333.32 973.195 1307.26 973.195C1272.79 973.195 1242.92 966.881 1217.66 954.253C1192.41 941.625 1172.97 923.686 1159.34 900.435C1145.71 877.183 1138.89 849.723 1138.89 818.053C1138.89 787.586 1145.61 760.527 1159.04 736.875C1172.47 713.223 1191.21 694.882 1215.26 681.854C1239.31 668.825 1267.17 662.311 1298.84 662.311ZM1301.85 736.875C1283.01 736.875 1267.67 741.685 1255.85 751.306C1244.02 760.928 1237.31 774.357 1235.7 791.595L1366.79 791.595C1365.59 774.357 1359.28 760.928 1347.85 751.306C1336.43 741.685 1321.09 736.875 1301.85 736.875Z"/>
<path d="M1755.85 917.272C1775.89 926.492 1791.43 939.22 1802.45 955.456C1813.48 971.692 1818.99 990.433 1818.99 1011.68C1818.99 1036.53 1812.17 1058.48 1798.54 1077.52C1784.91 1096.57 1765.67 1111.2 1740.82 1121.42C1715.96 1131.64 1687.1 1136.75 1654.23 1136.75C1622.16 1136.75 1594.09 1131.54 1570.04 1121.12C1545.99 1110.7 1527.45 1095.86 1514.42 1076.62C1501.39 1057.38 1494.87 1035.13 1494.87 1009.88C1494.87 1003.46 1495.08 998.651 1495.48 995.444L1586.28 995.444C1585.47 1015.09 1590.99 1030.32 1602.81 1041.14C1614.64 1051.97 1631.78 1057.38 1654.23 1057.38C1674.27 1057.38 1690.51 1052.87 1702.93 1043.85C1715.36 1034.83 1721.57 1022.9 1721.57 1008.07C1721.57 992.838 1715.86 981.112 1704.44 972.894C1693.01 964.676 1676.68 960.567 1655.43 960.567C1622.56 960.567 1593.79 954.353 1569.14 941.926C1544.48 929.499 1525.44 911.96 1512.01 889.31C1498.58 866.66 1491.87 840.302 1491.87 810.236C1491.87 781.373 1498.78 755.616 1512.61 732.966C1526.44 710.316 1545.69 692.677 1570.34 680.05C1595 667.422 1623.16 661.108 1654.83 661.108C1679.28 661.108 1701.73 665.918 1722.18 675.54L1757.05 632.244L1826.2 682.154L1786.52 728.456C1806.56 751.306 1816.58 778.566 1816.58 810.236C1816.58 832.285 1811.27 852.629 1800.65 871.27C1790.02 889.912 1775.09 905.245 1755.85 917.272ZM1654.83 880.591C1675.67 880.591 1692.51 874.177 1705.34 861.349C1718.17 848.52 1724.58 831.483 1724.58 810.236C1724.58 788.989 1718.27 772.052 1705.64 759.424C1693.01 746.796 1676.07 740.483 1654.83 740.483C1633.98 740.483 1617.14 746.796 1604.32 759.424C1591.49 772.052 1585.07 788.989 1585.07 810.236C1585.07 831.082 1591.49 848.019 1604.32 861.048C1617.14 874.077 1633.98 880.591 1654.83 880.591Z"/>
<path d="M2021.03 662.311C2053.5 662.311 2081.57 668.424 2105.22 680.651C2128.87 692.878 2147.01 710.116 2159.64 732.365C2172.27 754.614 2178.58 780.571 2178.58 810.236C2178.58 819.857 2177.58 831.683 2175.57 845.714L1957.29 845.714C1960.1 860.948 1968.32 873.275 1981.95 882.696C1995.58 892.116 2013.02 896.827 2034.26 896.827C2049.09 896.827 2063.53 894.622 2077.56 890.212C2091.59 885.802 2103.61 879.589 2113.64 871.571L2162.95 924.488C2146.11 940.122 2126.16 952.148 2103.11 960.567C2080.06 968.986 2055.51 973.195 2029.45 973.195C1994.98 973.195 1965.11 966.881 1939.85 954.253C1914.6 941.625 1895.16 923.686 1881.53 900.435C1867.9 877.183 1861.08 849.723 1861.08 818.053C1861.08 787.586 1867.8 760.527 1881.23 736.875C1894.65 713.223 1913.4 694.882 1937.45 681.854C1961.5 668.825 1989.36 662.311 2021.03 662.311ZM2024.04 736.875C2005.2 736.875 1989.86 741.685 1978.04 751.306C1966.21 760.928 1959.5 774.357 1957.89 791.595L2088.98 791.595C2087.78 774.357 2081.47 760.928 2070.04 751.306C2058.62 741.685 2043.28 736.875 2024.04 736.875Z"/>
<path d="M2414.3 662.311C2451.18 662.311 2480.54 674.337 2502.39 698.39C2524.24 722.443 2535.16 755.716 2535.16 798.21L2535.16 965.979L2440.76 965.979L2440.76 803.622C2440.76 784.379 2435.95 769.346 2426.33 758.522C2416.7 747.698 2403.47 742.287 2386.64 742.287C2368.2 742.287 2353.36 748.5 2342.14 760.928C2330.92 773.355 2325.3 789.591 2325.3 809.635L2325.3 965.979L2230.89 965.979L2230.89 668.925L2312.67 668.925L2318.69 703.802C2330.31 690.573 2344.24 680.35 2360.48 673.134C2376.72 665.918 2394.66 662.311 2414.3 662.311Z"/>
<path d="M2717.97 973.796C2665.45 973.796 2619.75 960.567 2580.87 934.109L2616.94 869.166C2631.38 877.985 2648.11 884.8 2667.16 889.611C2686.2 894.421 2705.14 896.827 2723.98 896.827C2750.04 896.827 2763.07 889.811 2763.07 875.78C2763.07 868.565 2759.46 863.153 2752.24 859.545C2745.03 855.937 2733 853.531 2716.16 852.329C2678.48 850.324 2648.51 840.904 2626.27 824.067C2604.02 807.23 2592.89 785.181 2592.89 757.921C2592.89 728.256 2604.92 704.704 2628.97 687.265C2653.02 669.827 2685.5 661.108 2726.39 661.108C2749.64 661.108 2771.79 663.914 2792.83 669.526C2813.88 675.139 2832.02 682.956 2847.25 692.978L2810.57 756.117C2788.12 743.289 2761.46 736.875 2730.59 736.875C2700.13 736.875 2684.89 744.091 2684.89 758.522C2684.89 764.536 2688 769.146 2694.21 772.353C2700.43 775.56 2710.95 777.965 2725.78 779.569C2768.28 782.776 2800.65 792.397 2822.9 808.432C2845.15 824.467 2856.27 846.917 2856.27 875.78C2856.27 906.247 2844.04 930.2 2819.59 947.639C2795.14 965.077 2761.26 973.796 2717.97 973.796Z"/>
<path d="M2951.88 869.767C2967.92 869.767 2980.95 874.678 2990.97 884.5C3000.99 894.321 3006 907.25 3006 923.285C3006 936.514 3003.19 950.846 2997.58 966.28C2991.97 981.714 2981.35 1006.07 2965.71 1039.34L2914.6 1039.34L2931.44 967.182C2921.01 964.375 2912.8 958.863 2906.78 950.645C2900.77 942.427 2897.76 932.505 2897.76 920.88C2897.76 905.646 2902.77 893.319 2912.8 883.898C2922.82 874.478 2935.85 869.767 2951.88 869.767Z"/>
</g>
<path d="M747.908 291.606C818.363 291.606 880.174 305.632 933.341 333.683C986.508 361.735 1027.61 401.692 1056.64 453.554C1085.67 505.417 1100.18 565.597 1100.18 634.095C1100.18 702.592 1085.67 762.773 1056.64 814.635C1027.61 866.498 986.508 906.455 933.341 934.506C880.174 962.558 818.363 976.584 747.908 976.584L467.067 976.584L467.067 291.606L747.908 291.606ZM747.908 836.652C805.316 836.652 851.633 818.386 886.861 781.854C922.088 745.322 939.702 696.069 939.702 634.095C939.702 592.996 931.71 557.279 915.727 526.945C899.745 496.61 877.238 473.125 848.208 456.49C819.178 439.855 785.745 431.537 747.908 431.537L627.548 431.537L627.548 836.652L747.908 836.652Z" fill="#27272b" filter="url(#Filter_2)" stroke="#a0a0a0" stroke-linecap="butt" stroke-linejoin="round" stroke-width="8.06952" vectornator:layerName="Text 5" vectornator:shadowAngle="1.5708" vectornator:shadowColor="#000000" vectornator:shadowOffset="19.5151" vectornator:shadowOpacity="0.333" vectornator:shadowRadius="19.5151"/>
<g fill="#27272b" filter="url(#Filter_3)" stroke="#a0a0a0" stroke-linecap="butt" stroke-linejoin="round" stroke-width="8.06952" vectornator:layerName="Text 4" vectornator:shadowAngle="1.5708" vectornator:shadowColor="#000000" vectornator:shadowOffset="12.0214" vectornator:shadowOpacity="0.333" vectornator:shadowRadius="12.0214">
<path d="M1298.84 296.453C1331.31 296.453 1359.38 302.567 1383.03 314.794C1406.68 327.02 1424.82 344.258 1437.45 366.507C1450.08 388.756 1456.39 414.713 1456.39 444.379C1456.39 454 1455.39 465.826 1453.38 479.857L1235.1 479.857C1237.91 495.09 1246.13 507.418 1259.76 516.838C1273.39 526.259 1290.83 530.969 1312.07 530.969C1326.91 530.969 1341.34 528.765 1355.37 524.355C1369.4 519.945 1381.43 513.731 1391.45 505.714L1440.76 558.63C1423.92 574.265 1403.97 586.291 1380.92 594.71C1357.87 603.128 1333.32 607.337 1307.26 607.337C1272.79 607.337 1242.92 601.024 1217.66 588.396C1192.41 575.768 1172.97 557.828 1159.34 534.577C1145.71 511.326 1138.89 483.866 1138.89 452.196C1138.89 421.729 1145.61 394.669 1159.04 371.017C1172.47 347.365 1191.21 329.025 1215.26 315.996C1239.31 302.968 1267.17 296.453 1298.84 296.453ZM1301.85 371.017C1283.01 371.017 1267.67 375.828 1255.85 385.449C1244.02 395.07 1237.31 408.5 1235.7 425.738L1366.79 425.738C1365.59 408.5 1359.28 395.07 1347.85 385.449C1336.43 375.828 1321.09 371.017 1301.85 371.017Z"/>
<path d="M1820.19 303.068L1820.19 600.122L1738.41 600.122L1732.4 564.643C1707.14 592.304 1674.27 606.135 1633.78 606.135C1606.12 606.135 1581.57 599.62 1560.12 586.592C1538.67 573.563 1521.93 555.323 1509.91 531.871C1497.88 508.42 1491.87 481.661 1491.87 451.595C1491.87 421.528 1497.88 394.77 1509.91 371.318C1521.93 347.866 1538.67 329.626 1560.12 316.598C1581.57 303.569 1606.12 297.054 1633.78 297.054C1653.82 297.054 1672.27 300.562 1689.1 307.578C1705.94 314.593 1720.37 324.715 1732.4 337.945L1738.41 303.068L1820.19 303.068ZM1656.03 526.76C1676.88 526.76 1693.91 519.845 1707.14 506.014C1720.37 492.184 1726.99 474.044 1726.99 451.595C1726.99 429.145 1720.37 411.005 1707.14 397.175C1693.91 383.344 1676.88 376.429 1656.03 376.429C1635.18 376.429 1618.25 383.445 1605.22 397.476C1592.19 411.506 1585.67 429.546 1585.67 451.595C1585.67 473.643 1592.19 491.683 1605.22 505.714C1618.25 519.745 1635.18 526.76 1656.03 526.76Z"/>
<path d="M2060.12 296.453C2073.75 296.453 2087.38 298.959 2101.01 303.97C2114.64 308.981 2126.47 316.297 2136.49 325.918L2096.8 395.07C2088.38 389.859 2080.56 386.05 2073.35 383.645C2066.13 381.24 2058.52 380.037 2050.5 380.037C2030.45 380.037 2014.62 386.451 2002.99 399.28C1991.37 412.108 1985.55 430.949 1985.55 455.804L1985.55 600.122L1891.15 600.122L1891.15 303.068L1973.53 303.068L1980.74 340.35C1999.99 311.085 2026.44 296.453 2060.12 296.453Z"/>
</g>
</g>
<g id="Layer-1-copy" vectornator:layerName="Layer 1 copy" visibility="hidden">
<g filter="url(#Filter_4)" vectornator:layerName="Group 1" vectornator:shadowAngle="1.5708" vectornator:shadowColor="#000000" vectornator:shadowOffset="15.51" vectornator:shadowOpacity="0.333" vectornator:shadowRadius="15.51">
<path d="M73.7443 708.582C73.7443 423.946 323.606 193.203 631.825 193.203C940.045 193.203 1189.91 423.946 1189.91 708.582C1189.91 993.217 940.045 1223.96 631.825 1223.96C323.606 1223.96 73.7443 993.217 73.7443 708.582Z" fill="none" opacity="1" stroke="#373331" stroke-linecap="butt" stroke-linejoin="round" stroke-width="34.621" vectornator:layerName="Oval 1"/>
<path d="M301.612 381.97C301.612 201.587 375.533 55.3575 466.719 55.3575C557.904 55.3575 631.825 201.587 631.825 381.97C631.825 562.352 557.904 708.582 466.719 708.582C375.533 708.582 301.612 562.352 301.612 381.97Z" fill="#ffffff" fill-rule="nonzero" opacity="1" stroke="#373331" stroke-linecap="butt" stroke-linejoin="round" stroke-width="34.621" vectornator:layerName="Oval 2"/>
<path d="M716.046 381.97C716.046 201.587 789.967 55.3575 881.153 55.3575C972.339 55.3575 1046.26 201.587 1046.26 381.97C1046.26 562.352 972.339 708.582 881.153 708.582C789.967 708.582 716.046 562.352 716.046 381.97Z" fill="#ffffff" fill-rule="nonzero" opacity="1" stroke="#373331" stroke-linecap="butt" stroke-linejoin="round" stroke-width="34.621" vectornator:layerName="Oval 3"/>
<path d="M301.612 489.796L631.825 393.824" fill="none" opacity="1" stroke="#373331" stroke-linecap="butt" stroke-linejoin="round" stroke-width="34.621" vectornator:layerName="Curve 2"/>
<path d="M727.589 381.97L1046.26 489.796" fill="none" opacity="1" stroke="#373331" stroke-linecap="butt" stroke-linejoin="round" stroke-width="34.621" vectornator:layerName="Curve 3"/>
<path d="M435.531 506.747C435.531 466.477 472.29 433.832 517.635 433.832C562.98 433.832 599.74 466.477 599.74 506.747C599.74 547.016 562.98 579.661 517.635 579.661C472.29 579.661 435.531 547.016 435.531 506.747Z" fill="#373331" fill-rule="nonzero" opacity="1" stroke="#373331" stroke-linecap="butt" stroke-linejoin="round" stroke-width="34.621" vectornator:layerName="Oval 4"/>
<path d="M849.055 539.22C849.055 496.469 887.494 461.812 934.91 461.812C982.327 461.812 1020.77 496.469 1020.77 539.22C1020.77 581.971 982.327 616.627 934.91 616.627C887.494 616.627 849.055 581.971 849.055 539.22Z" fill="#373331" fill-rule="nonzero" opacity="1" stroke="#373331" stroke-linecap="butt" stroke-linejoin="round" stroke-width="34.621" vectornator:layerName="Oval 5"/>
<path d="M422.923 936.472L979.636 840.989L401.78 824.121L444.996 1019.79L862.85 956.437" fill="none" opacity="1" stroke="#373331" stroke-linecap="butt" stroke-linejoin="round" stroke-width="17.3105" vectornator:layerName="Curve 5"/>
<path d="M489.735 850.435L531.964 989.715" fill="none" opacity="1" stroke="#373331" stroke-linecap="butt" stroke-linejoin="round" stroke-width="17.3105" vectornator:layerName="Curve 6"/>
<path d="M595.743 850.435L631.825 970.985" fill="none" opacity="1" stroke="#373331" stroke-linecap="butt" stroke-linejoin="round" stroke-width="17.3105" vectornator:layerName="Curve 8"/>
<path d="M716.046 846.745L739.132 921.955" fill="none" opacity="1" stroke="#373331" stroke-linecap="butt" stroke-linejoin="round" stroke-width="17.3105" vectornator:layerName="Curve 9"/>
<path d="M854.094 955.151C854.094 955.151 844.035 932.188 872.218 904.539C900.401 876.89 985.552 835.656 985.552 835.656" fill="none" opacity="1" stroke="#373331" stroke-linecap="butt" stroke-linejoin="round" stroke-width="17.3105" vectornator:layerName="Curve 7"/>
</g>
<g filter="url(#Filter_5)" vectornator:layerName="Group 2" vectornator:shadowAngle="1.5708" vectornator:shadowColor="#000000" vectornator:shadowOffset="15.51" vectornator:shadowOpacity="0.333" vectornator:shadowRadius="15.51">
<path d="M631.812 193.188C621.671 193.187 611.602 193.475 601.594 193.969C620.574 247.156 631.812 311.913 631.812 381.969C631.812 562.352 557.905 708.594 466.719 708.594C375.533 708.594 301.625 562.352 301.625 381.969C301.625 349.498 304.071 318.198 308.531 288.594C166.471 382.019 73.75 535.268 73.75 708.594C73.75 993.229 323.593 1223.97 631.812 1223.97C940.032 1223.97 1189.91 993.23 1189.91 708.594C1189.91 575.593 1135.35 454.362 1045.78 362.938C1045.97 369.268 1046.25 375.546 1046.25 381.969C1046.25 562.352 972.342 708.594 881.156 708.594C789.97 708.594 716.031 562.352 716.031 381.969C716.031 316.053 725.992 254.794 742.969 203.469C707.052 196.766 669.869 193.188 631.812 193.188Z" fill="none" opacity="1" stroke="#373331" stroke-linecap="butt" stroke-linejoin="round" stroke-width="34.621" vectornator:layerName="Curve 10"/>
<path d="M301.612 381.97C301.612 201.587 375.533 55.3575 466.719 55.3575C557.904 55.3575 631.825 201.587 631.825 381.97C631.825 562.352 557.904 708.582 466.719 708.582C375.533 708.582 301.612 562.352 301.612 381.97Z" fill="none" opacity="1" stroke="#373331" stroke-linecap="butt" stroke-linejoin="round" stroke-width="34.621" vectornator:layerName="Oval 6"/>
<path d="M716.046 381.97C716.046 201.587 789.967 55.3575 881.153 55.3575C972.339 55.3575 1046.26 201.587 1046.26 381.97C1046.26 562.352 972.339 708.582 881.153 708.582C789.967 708.582 716.046 562.352 716.046 381.97Z" fill="none" opacity="1" stroke="#373331" stroke-linecap="butt" stroke-linejoin="round" stroke-width="34.621" vectornator:layerName="Oval 7"/>
<path d="M301.612 489.796L631.825 393.824" fill="none" opacity="1" stroke="#373331" stroke-linecap="butt" stroke-linejoin="round" stroke-width="34.621" vectornator:layerName="Curve 2"/>
<path d="M727.589 381.97L1046.26 489.796" fill="none" opacity="1" stroke="#373331" stroke-linecap="butt" stroke-linejoin="round" stroke-width="34.621" vectornator:layerName="Curve 3"/>
<path d="M435.531 506.747C435.531 466.477 472.29 433.832 517.635 433.832C562.98 433.832 599.74 466.477 599.74 506.747C599.74 547.016 562.98 579.661 517.635 579.661C472.29 579.661 435.531 547.016 435.531 506.747Z" fill="#373331" fill-rule="nonzero" opacity="1" stroke="#373331" stroke-linecap="butt" stroke-linejoin="round" stroke-width="34.621" vectornator:layerName="Oval 4"/>
<path d="M849.055 539.22C849.055 496.469 887.494 461.812 934.91 461.812C982.327 461.812 1020.77 496.469 1020.77 539.22C1020.77 581.971 982.327 616.627 934.91 616.627C887.494 616.627 849.055 581.971 849.055 539.22Z" fill="#373331" fill-rule="nonzero" opacity="1" stroke="#373331" stroke-linecap="butt" stroke-linejoin="round" stroke-width="34.621" vectornator:layerName="Oval 5"/>
<path d="M422.923 936.472L979.636 840.989L401.78 824.121L444.996 1019.79L862.85 956.437" fill="none" opacity="1" stroke="#373331" stroke-linecap="butt" stroke-linejoin="round" stroke-width="17.3105" vectornator:layerName="Curve 5"/>
<path d="M489.735 850.435L531.964 989.715" fill="none" opacity="1" stroke="#373331" stroke-linecap="butt" stroke-linejoin="round" stroke-width="17.3105" vectornator:layerName="Curve 6"/>
<path d="M595.743 850.435L631.825 970.985" fill="none" opacity="1" stroke="#373331" stroke-linecap="butt" stroke-linejoin="round" stroke-width="17.3105" vectornator:layerName="Curve 8"/>
<path d="M716.046 846.745L739.132 921.955" fill="none" opacity="1" stroke="#373331" stroke-linecap="butt" stroke-linejoin="round" stroke-width="17.3105" vectornator:layerName="Curve 9"/>
<path d="M854.094 955.151C854.094 955.151 844.035 932.188 872.218 904.539C900.401 876.89 985.552 835.656 985.552 835.656" fill="none" opacity="1" stroke="#373331" stroke-linecap="butt" stroke-linejoin="round" stroke-width="17.3105" vectornator:layerName="Curve 7"/>
</g>
</g>
</svg>
