<svg width="1367" height="632" viewBox="0 0 1367 632" fill="none" xmlns="http://www.w3.org/2000/svg">
<rect width="1367" height="632" fill="white"/>
<path d="M612.564 234.756H593.029V203.059H612.564V190.162C612.564 159.559 635.443 144.005 666.016 144.005C675.845 143.904 685.633 145.364 694.989 148.304V178.379C688.403 176.25 681.529 175.155 674.614 175.134C661.051 175.134 654.526 181.34 654.526 193.122V203.059H696.651V234.756H653.992V337.96H612.564V234.756V234.756Z" fill="#022D2D"/>
<path d="M395.265 287.251V284.548H355.568C344.476 284.548 337.768 289.708 337.768 297.326C337.768 307.585 346.637 313.032 361.521 313.032C382.93 312.848 395.265 303.346 395.265 287.251V287.251ZM300.762 300.111C300.762 278.138 316.4 262.125 351.775 262.125H395.265V253.156C395.265 236.917 386.09 230.405 367.189 230.405C351.775 230.405 342.906 236.917 342.906 247.77C342.906 248.589 342.906 250.76 343.151 253.463H305.37C305.023 250.862 304.819 248.241 304.799 245.599C304.799 218.467 328.552 202.453 369.065 202.453C409.578 202.453 436.268 221.456 436.268 257.272V338.588H395.224C396.387 329.557 397.1 320.465 397.345 311.353H397.059C392.982 330.335 377.853 340.615 353.569 340.615C322.374 340.759 300.782 327.223 300.782 300.131L300.762 300.111Z" fill="#022D2D"/>
<path fill-rule="evenodd" clip-rule="evenodd" d="M479.756 202.453H438.924L475.326 338.447H506.827C500.839 354.702 491.63 360.714 477.131 360.693C471.163 360.693 465.236 359.937 459.453 358.465V390.076C468.046 392.775 477.028 394.002 486.032 393.715C511.975 393.715 534.103 378.012 545.752 338.426L582.401 202.453H541.466L511.052 323.827L479.756 202.453V202.453Z" fill="#022D2D"/>
<path d="M796.441 287.163V284.463H756.755C745.728 284.463 738.961 289.618 738.961 297.228C738.961 307.477 747.889 312.918 762.952 312.918C784.068 312.734 796.441 303.242 796.441 287.163V287.163ZM701.966 300.01C701.966 278.06 717.661 262.063 753.025 262.063H796.441V253.103C796.441 236.881 787.269 230.376 768.374 230.376C753.025 230.376 744.097 236.881 744.097 247.723C744.097 249.626 744.179 251.508 744.383 253.41H706.572C706.226 250.812 706.063 248.194 706.042 245.555C706.042 218.45 730.033 202.453 770.29 202.453C812.666 202.453 837.472 221.437 837.472 257.215V338.448H796.4C797.501 329.468 798.133 320.426 798.316 311.384H798.031C793.995 330.368 778.83 340.616 754.554 340.616C723.551 340.616 701.966 327.095 701.966 300.01V300.01Z" fill="#022D2D"/>
<path d="M851.008 293.388H887.509C887.509 305.799 893.708 313.93 917.039 313.93C938.277 313.93 945.675 307.724 945.675 297.955C945.675 293.142 943.297 289.292 936.122 287.674C925.92 285.769 915.616 284.519 905.251 283.926C886.168 282.287 871.413 279.113 863.405 273.644C859.402 270.572 856.15 266.599 853.955 262.032C851.76 257.464 850.663 252.447 850.764 247.367C850.764 218.51 880.315 202.453 917.1 202.453C960.572 202.453 980.468 219.247 980.468 250.542H944.496C944.211 236.492 937.769 229.181 917.628 229.181C899.398 229.181 891.33 235.386 891.33 244.582C891.086 247.429 891.939 250.255 893.728 252.488C895.516 254.72 898.077 256.154 900.882 256.522C911.734 258.489 922.668 259.84 933.663 260.557C950.044 262.196 961.588 263.834 971.505 269.507C976.058 272.231 979.818 276.102 982.419 280.751C985 285.4 986.342 290.664 986.26 295.989C986.26 324.129 962.401 340.616 917.018 340.616C870.62 340.432 851.008 320.422 851.008 293.388V293.388Z" fill="#022D2D"/>
<path fill-rule="evenodd" clip-rule="evenodd" d="M1015.94 154.627L1063.63 154.75V165.835C1063.57 185.833 1047.5 202.062 1027.6 202.369H1095.2V234.395H1052.27V290.149C1052.27 304 1058.82 308.344 1075.08 308.344C1081.36 308.303 1087.6 307.668 1093.77 306.459V337.665C1085.21 339.489 1076.49 340.472 1067.75 340.616C1026.01 340.616 1011.08 322.195 1011.08 292.341V234.416H991.576V202.389H1015.98V154.647L1015.94 154.627Z" fill="#022D2D"/>
<path d="M249.538 269.779C249.538 248.254 237.172 233.7 218.643 233.7C198.264 233.7 184.555 248.478 184.555 270.839V276.77C184.555 295.91 198.264 308.547 218.928 308.547C237.172 308.547 249.538 292.954 249.538 269.779ZM144 204.593H184.555L183.742 231.784H183.986C189.091 213.501 206.054 202.453 228.874 202.453C265.931 202.453 290.134 228.87 290.134 268.148C290.134 311.217 265.931 339.937 228.589 339.937C204.426 339.937 189.376 329.99 183.457 313.867C183.986 322.714 184.8 335.922 184.8 340.753V391.099H144V204.614V204.593Z" fill="#022D2D"/>
<path d="M1163.19 202.735H1128.57L1188.17 273.711L1129.31 343.698H1163.93L1222.54 273.711L1163.19 202.735Z" fill="#E54360"/>
<path d="M835.409 433.077C835.35 431.093 835.039 429.168 834.417 427.398C833.795 425.628 832.9 424.111 831.753 422.808C830.605 421.505 829.088 420.513 827.318 419.735C825.548 418.957 823.506 418.587 821.114 418.587C818.975 418.587 816.894 418.957 815.066 419.735C813.14 420.513 811.565 421.505 810.106 422.808C808.745 424.111 807.597 425.628 806.664 427.398C805.73 429.168 805.205 431.054 805.147 433.077H835.409ZM845.697 437.142V438.814C845.697 439.436 845.697 439.962 845.639 440.487H805.147C805.205 442.626 805.672 444.61 806.605 446.535C807.539 448.461 808.686 450.036 810.203 451.436C811.72 452.798 813.432 453.887 815.416 454.723C817.399 455.501 819.48 455.871 821.678 455.871C825.12 455.871 828.096 455.093 830.644 453.634C833.153 452.117 835.078 450.25 836.537 448.111L843.636 453.79C840.874 457.388 837.743 460.052 833.989 461.783C830.333 463.456 826.151 464.292 821.678 464.292C817.769 464.292 814.268 463.67 810.981 462.367C807.694 461.063 804.874 459.294 802.482 456.94C800.129 454.645 798.262 451.825 796.9 448.538C795.539 445.252 794.819 441.595 794.819 437.589C794.819 433.582 795.5 430.023 796.803 426.62C798.106 423.236 800.032 420.416 802.327 418.062C804.68 415.709 807.539 413.842 810.728 412.519C813.957 411.216 817.458 410.536 821.114 410.536C824.77 410.536 828.213 411.158 831.286 412.364C834.359 413.57 836.965 415.339 839.007 417.634C841.146 419.929 842.761 422.691 843.908 425.978C845.153 429.42 845.678 433.077 845.678 437.142H845.697Z" fill="#022D2D"/>
<path d="M947.706 412.091L936.173 451.397L923.706 412.091H913.049L900.796 451.397L889.146 412.091H878.196L895.214 463.086H905.697L918.164 424.83H918.377L930.961 463.086H941.502L958.345 412.091H947.706Z" fill="#022D2D"/>
<path d="M1001.77 437.512C1001.77 435.061 1001.4 432.766 1000.63 430.568C999.848 428.332 998.797 426.445 997.339 424.773C995.88 423.1 994.11 421.797 991.971 420.708C989.831 419.716 987.439 419.191 984.717 419.191C981.994 419.191 979.602 419.716 977.462 420.708C975.323 421.7 973.553 423.061 972.094 424.773C970.636 426.504 969.585 428.371 968.807 430.568C968.03 432.805 967.66 435.119 967.66 437.512C967.66 439.904 968.03 442.257 968.807 444.455C969.585 446.652 970.636 448.675 972.094 450.348C973.553 452.02 975.323 453.421 977.462 454.413C979.602 455.404 981.994 455.929 984.717 455.929C987.439 455.929 989.831 455.404 991.971 454.413C994.11 453.421 995.88 452.059 997.339 450.348C998.797 448.675 999.848 446.691 1000.63 444.455C1001.46 442.257 1001.77 439.962 1001.77 437.512ZM1012.31 437.453C1012.31 441.421 1011.63 445.019 1010.23 448.306C1008.87 451.592 1006.85 454.413 1004.44 456.863C1001.99 459.216 999.07 461.142 995.725 462.445C992.34 463.748 988.781 464.429 984.872 464.429C980.963 464.429 977.365 463.748 974.02 462.445C970.636 461.142 967.757 459.216 965.307 456.863C962.856 454.51 960.931 451.592 959.569 448.306C958.208 445.019 957.488 441.421 957.488 437.453C957.488 433.486 958.169 429.888 959.569 426.659C960.931 423.372 962.856 420.61 965.307 418.257C967.757 415.904 970.675 414.037 974.02 412.734C977.404 411.431 980.963 410.75 984.872 410.75C988.781 410.75 992.379 411.431 995.725 412.734C999.109 414.037 1001.99 415.865 1004.44 418.257C1006.89 420.649 1008.87 423.469 1010.23 426.659C1011.63 429.946 1012.31 433.544 1012.31 437.453Z" fill="#022D2D"/>
<path d="M1061.33 396.338H1051.19V463.086H1061.33V396.338Z" fill="#022D2D"/>
<path d="M874.171 419.813V412.091H861.432V396.338H851.416V447.994C851.416 453.264 852.719 457.232 855.228 459.935C857.737 462.6 861.432 463.903 866.236 463.903C867.85 463.903 869.309 463.747 870.826 463.533C872.032 463.319 873.121 463.067 874.113 462.697V454.354C873.335 454.665 872.498 454.879 871.604 455.132C870.515 455.345 869.523 455.443 868.628 455.443C866.119 455.443 864.252 454.762 863.105 453.459C861.957 452.156 861.432 449.958 861.432 446.885V419.851L874.171 419.793V419.813Z" fill="#022D2D"/>
<path d="M1042.64 410.73C1039.19 410.73 1036.12 411.664 1033.4 413.492C1030.64 415.32 1028.19 417.713 1026.82 420.747V412.092H1017.27V463.067H1027.39V436.306C1027.39 434.166 1027.7 432.085 1028.22 430.101C1028.75 428.118 1029.68 426.445 1030.83 424.889C1031.98 423.372 1033.49 422.225 1035.26 421.291C1037.03 420.358 1039.17 419.93 1041.62 419.93C1043.24 419.93 1044.76 420.085 1046.21 420.455V411.061C1045.16 410.808 1044.02 410.75 1042.62 410.75L1042.64 410.73Z" fill="#022D2D"/>
<path d="M788.342 423.372C787.564 420.863 786.417 418.724 784.842 416.798C783.227 414.97 781.341 413.414 778.949 412.364C776.595 411.275 773.736 410.691 770.45 410.691C768.621 410.691 766.793 410.905 765.082 411.469C763.409 411.994 761.795 412.675 760.336 413.55C758.878 414.484 757.672 415.476 756.524 416.682C755.377 417.829 754.229 419.132 753.549 420.494V412.15H744.058V463.125H754.171V436.033C754.171 430.976 755.474 426.853 757.983 423.878C760.492 420.805 763.779 419.288 767.785 419.288C770.138 419.288 772.064 419.755 773.581 420.591C775.098 421.427 776.245 422.575 777.082 424.033C777.918 425.492 778.54 427.106 778.851 428.993C779.163 430.821 779.318 432.805 779.318 434.886V463.125H789.49V431.502C789.49 428.584 789.12 425.861 788.342 423.353V423.372Z" fill="#022D2D"/>
<path d="M1082.82 412.091H1095.28L1073.79 437.763L1094.97 463.086H1082.51L1061.31 437.763L1082.82 412.091Z" fill="#022D2D"/>
<path d="M641.156 455.132C643.665 455.132 645.921 454.723 647.943 453.887C649.966 452.973 651.677 451.787 653.058 450.328C654.459 448.792 655.528 446.983 656.306 444.882C657.084 442.724 657.454 440.39 657.454 437.881C657.454 435.372 657.065 433.077 656.306 430.977C655.548 428.818 654.459 427.009 653.058 425.531C651.658 423.994 649.966 422.808 647.943 421.972C645.921 421.058 643.665 420.61 641.156 420.61C638.647 420.61 636.391 421.058 634.368 421.972C632.345 422.808 630.634 423.994 629.253 425.531C627.853 426.989 626.783 428.798 626.005 430.977C625.227 433.058 624.858 435.372 624.858 437.881C624.858 440.39 625.246 442.724 626.005 444.882C626.763 446.983 627.853 448.792 629.253 450.328C630.653 451.787 632.345 452.973 634.368 453.887C636.391 454.723 638.647 455.132 641.156 455.132ZM615.444 383.638H624.858V420.221H625.071C626.744 417.635 629.156 415.631 632.287 414.153C635.418 412.617 638.763 411.858 642.322 411.858C646.154 411.858 649.596 412.52 652.669 413.842C655.8 415.165 658.445 417.012 660.624 419.385C662.86 421.68 664.552 424.442 665.739 427.651C666.925 430.782 667.509 434.205 667.509 437.9C667.509 441.596 666.906 444.999 665.739 448.15C664.552 451.281 662.841 454.043 660.624 456.415C658.465 458.788 655.82 460.636 652.669 461.958C649.596 463.281 646.154 463.942 642.322 463.942C638.977 463.942 635.71 463.203 632.501 461.745C629.37 460.286 626.88 458.224 625.071 455.579H624.858V462.678H615.444V383.658V383.638Z" fill="#022D2D"/>
<path d="M668.17 413.123H679.042L693.784 451.806H693.998L708.001 413.123H718.134L694.62 473.336C693.784 475.495 692.909 477.44 692.014 479.19C691.1 480.999 690.03 482.535 688.766 483.78C687.521 485.025 685.985 486.017 684.176 486.717C682.426 487.417 680.267 487.767 677.7 487.767C676.3 487.767 674.88 487.67 673.421 487.456C672.021 487.32 670.679 486.97 669.337 486.406L670.484 477.829C672.371 478.587 674.257 478.976 676.125 478.976C677.583 478.976 678.808 478.762 679.781 478.354C680.831 478.004 681.687 477.44 682.387 476.681C683.145 475.981 683.787 475.145 684.274 474.172C684.76 473.2 685.246 472.091 685.732 470.827L688.766 462.989L668.17 413.123V413.123Z" fill="#022D2D"/>
</svg>
